<?xml version="1.0" encoding="UTF-8"?>
<svg viewBox="0 0 400 300" xmlns="http://www.w3.org/2000/svg">
  <!-- Background gradient representing dawn -->
  <defs>
    <linearGradient id="sunrise" x1="0%" y1="0%" x2="0%" y2="100%">
      <stop offset="0%" stop-color="#FF9E54" />
      <stop offset="100%" stop-color="#FFCF8C" />
    </linearGradient>
  </defs>
  
  <!-- Sun/Circle element -->
  <circle cx="200" cy="150" r="80" fill="url(#sunrise)" />
  
  <!-- Silhouette of acacia tree -->
  <path d="M200 220 L200 270 M160 220 C180 200 190 160 160 150 M240 220 C220 200 210 160 240 150 M180 190 C190 180 195 160 180 155 M220 190 C210 180 205 160 220 155" 
        stroke="#333333" stroke-width="6" fill="none" stroke-linecap="round" />
  
  <!-- Animal silhouette (giraffe) -->
  <path d="M140 230 L130 200 L125 180 L130 170 L140 165 L145 155 L150 165 L155 170 L150 180 L155 200 L150 230" 
        fill="#333333" />
  

</svg>